<?xml version="1.0" encoding="UTF-8" standalone="no"?>
<svg
   version="1.1"
   viewBox="0 0 256 256"
   id="svg10"
   sodipodi:docname="bengalboot-logo.svg"
   inkscape:version="1.2.1 (9c6d41e410, 2022-07-14, custom)"
   xmlns:inkscape="http://www.inkscape.org/namespaces/inkscape"
   xmlns:sodipodi="http://sodipodi.sourceforge.net/DTD/sodipodi-0.dtd"
   xmlns:xlink="http://www.w3.org/1999/xlink"
   xmlns="http://www.w3.org/2000/svg"
   xmlns:svg="http://www.w3.org/2000/svg">
  <defs
     id="defs14">
    <linearGradient
       inkscape:collect="always"
       id="linearGradient1768">
      <stop
         style="stop-color:#12f41a;stop-opacity:1;"
         offset="0"
         id="stop1764" />
      <stop
         style="stop-color:#dc1616;stop-opacity:0.99069983;"
         offset="1"
         id="stop1766" />
    </linearGradient>
    <linearGradient
       inkscape:collect="always"
       xlink:href="#linearGradient1768"
       id="linearGradient1770"
       x1="214.34718"
       y1="99.861076"
       x2="133.25099"
       y2="200.79381"
       gradientUnits="userSpaceOnUse"
       spreadMethod="reflect" />
  </defs>
  <sodipodi:namedview
     id="namedview12"
     pagecolor="#ffffff"
     bordercolor="#000000"
     borderopacity="0.25"
     inkscape:showpageshadow="2"
     inkscape:pageopacity="0.0"
     inkscape:pagecheckerboard="0"
     inkscape:deskcolor="#d1d1d1"
     showgrid="false"
     inkscape:zoom="1.9921875"
     inkscape:cx="128.75294"
     inkscape:cy="128"
     inkscape:window-width="1366"
     inkscape:window-height="686"
     inkscape:window-x="0"
     inkscape:window-y="28"
     inkscape:window-maximized="1"
     inkscape:current-layer="g8" />
  <g
     fill="#1793d1"
     id="g8">
    <path
       d="m127.98 12.07c-10.316 25.309-16.543 41.855-28.031 66.41 7.043 7.4609 15.691 16.156 29.734 25.977-15.098-6.207-25.395-12.445-33.094-18.918-14.703 30.68-37.742 74.391-84.492 158.39 36.746-21.219 65.23-34.293 91.773-39.289-1.1406-4.8945-1.7852-10.195-1.7422-15.734l0.042969-1.1719c0.58203-23.551 12.828-41.645 27.336-40.418 14.508 1.2266 25.781 21.316 25.199 44.867-0.10938 4.4219-0.60938 8.6914-1.4805 12.641 26.258 5.1328 54.438 18.18 90.684 39.105-7.1484-13.156-13.527-25.016-19.621-36.316-9.5938-7.4336-19.605-17.117-40.023-27.594 14.035 3.6406 24.082 7.8516 31.914 12.555-61.941-115.32-66.957-130.66-88.199-180.5z"
       fill-rule="evenodd"
       id="path2" />
    <path
       d="m235.17 210.61v-5.832h-2.1758v-0.78125h5.2383v0.78125h-2.1875v5.832h-0.875"
       id="path4" />
    <path
       d="m239.14 210.61v-6.6133h1.3164l1.5664 4.6836c0.14453 0.43359 0.24609 0.76172 0.3125 0.97656 0.078125-0.23828 0.19531-0.59375 0.35156-1.0586l1.5859-4.6016h1.1758v6.6133h-0.84375v-5.5352l-1.9219 5.5352h-0.78906l-1.9102-5.6289v5.6289h-0.84375"
       id="path6" />
    <path
       style="fill:#000000;stroke-width:0.501961;paint-order:markers fill stroke"
       d="m 13.301961,242.59115 c 0,-0.12725 5.394059,-9.98113 11.986799,-21.89753 29.823504,-53.90606 47.286502,-86.52861 62.584179,-116.91323 4.830132,-9.593723 8.873908,-17.443135 8.986167,-17.443135 0.112258,0 1.814779,1.211683 3.783374,2.692633 5.29,3.979585 13.27174,8.588815 21.16992,12.225042 7.09616,3.26697 9.66928,3.92579 6.09525,1.56061 -6.0857,-4.027324 -21.88702,-17.799556 -25.54803,-22.267334 l -1.88909,-2.30538 1.03641,-2.352786 c 0.57003,-1.294034 3.28196,-7.435138 6.02653,-13.646903 2.74456,-6.211764 8.44961,-19.825047 12.67789,-30.25174 4.22828,-10.426692 7.74669,-18.89728 7.81869,-18.823529 0.072,0.07375 4.18737,9.621152 9.14527,21.216446 12.19748,28.526933 17.31676,39.567621 31.3044,67.513726 11.67375,23.32318 21.50083,42.22233 38.23284,73.52828 4.57156,8.55349 8.23732,15.62641 8.14614,15.7176 -0.0912,0.0912 -2.16581,-0.83633 -4.61028,-2.06114 -2.44448,-1.22481 -6.59038,-3.02828 -9.21313,-4.00773 -5.58801,-2.08679 -16.62053,-5.48457 -16.90021,-5.2049 -0.10645,0.10645 2.31727,1.5996 5.38606,3.31811 8.39865,4.70326 17.88244,11.23215 26.75937,18.4219 l 7.96678,6.45259 9.28654,17.21464 c 5.10761,9.46805 9.20255,17.28827 9.09989,17.37826 -0.10266,0.09 -3.91372,-1.95789 -8.46901,-4.55085 -11.58946,-6.59693 -31.21311,-16.43651 -41.89966,-21.0091 -10.58382,-4.52863 -24.15189,-9.13371 -32.66425,-11.08644 l -6.04626,-1.387 0.62358,-3.80133 c 0.78032,-4.75675 0.85015,-15.0035 0.13472,-19.76792 -2.35673,-15.6946 -9.13289,-27.50428 -18.39876,-32.06585 -3.06795,-1.51035 -3.78768,-1.66128 -7.90352,-1.65738 -3.97614,0.004 -4.89254,0.18238 -7.51651,1.46511 -3.92814,1.92026 -8.97329,7.03985 -11.66947,11.84166 -2.56438,4.56707 -4.8496,11.2523 -5.91735,17.31075 -0.9699,5.50324 -1.01262,17.52538 -0.0809,22.76031 0.46109,2.59063 0.49532,3.73678 0.11502,3.85195 -0.29775,0.0902 -2.34843,0.54568 -4.557056,1.01223 -18.52664,3.9136 -46.611674,15.79055 -75.670589,32.00054 -5.17647,2.8876 -9.411764,5.14607 -9.411764,5.01882 z"
       id="path243" />
    <path
       style="mix-blend-mode:multiply;fill:#000000;stroke-width:0.501961;paint-order:markers fill stroke;fill-opacity:1"
       d="m 235.16863,238.33422 c -8.95434,-5.0312 -27.11745,-14.33539 -35.63922,-18.25647 -13.45001,-6.1887 -26.36161,-10.84933 -38.90196,-14.04223 l -6.52549,-1.66146 0.25098,-2.42233 c 0.13804,-1.33228 0.24831,-6.93997 0.24505,-12.46153 -0.005,-8.89311 -0.14006,-10.55497 -1.18088,-14.55687 -1.39623,-5.36845 -3.61413,-10.9136 -6.0231,-15.05882 -2.22157,-3.82273 -7.5373,-9.1089 -11.11166,-11.04985 -2.59101,-1.40698 -3.10152,-1.49917 -8.30188,-1.49917 -5.44266,0 -5.59289,0.0312 -8.45683,1.75686 -3.72611,2.24515 -8.75087,7.55335 -11.00876,11.62974 -2.3073,4.16559 -4.62061,10.85822 -5.64866,16.34209 -0.66142,3.52818 -0.77591,6.45225 -0.57539,14.69484 0.13768,5.65961 0.40827,10.77527 0.60131,11.36813 0.3286,1.00925 0.0362,1.14902 -4.588235,2.19344 -19.08471,4.31023 -43.657931,14.6041 -73.352163,30.72766 -5.602032,3.04183 -10.279719,5.43639 -10.39486,5.32125 -0.115141,-0.11514 6.12936,-11.7199 13.876668,-25.78835 28.199482,-51.20785 41.451644,-75.96412 57.614611,-107.62946 5.842482,-11.446179 10.711793,-20.90034 10.820688,-21.00923 0.108895,-0.108895 2.075598,1.156518 4.370451,2.812029 8.60362,6.206665 27.13834,15.707941 28.32585,14.520421 0.13365,-0.13364 -2.08384,-2.04303 -4.92775,-4.24307 -6.97312,-5.394427 -17.14351,-14.38476 -20.85519,-18.435408 l -3.03329,-3.310301 4.26607,-9.647872 c 3.99634,-9.037829 10.65136,-24.859047 19.22354,-45.700772 2.26411,-5.504769 3.82184,-8.691299 4.04883,-8.282353 0.2029,0.365569 4.35582,9.8977 9.2287,21.182514 18.08206,41.875139 30.67069,67.512162 64.73163,131.827252 6.50633,12.28549 11.6249,22.40619 11.37462,22.49043 -0.2503,0.0842 -1.99888,-0.62166 -3.88575,-1.56867 -4.17727,-2.09656 -11.59006,-4.8964 -18.99146,-7.17314 -8.69307,-2.67407 -8.83701,-2.29608 -0.88504,2.32418 9.84564,5.72051 18.77133,11.98951 29.08947,20.43114 5.08167,4.15748 5.13799,4.22799 8.8438,11.07147 8.1609,15.07065 14.01851,26.26238 13.83894,26.44112 -0.10402,0.10354 -3.01266,-1.3982 -6.46364,-3.33721 z"
       id="path922" />
    <path
       id="path1217"
       style="fill:url(#linearGradient1770);fill-opacity:1;stroke-width:0.501961;paint-order:markers fill stroke"
       d="m 127.99805,14.556641 c -0.18676,0 -3.56804,7.849654 -7.51367,17.443359 -3.94565,9.593705 -9.98968,23.932718 -13.43165,31.865234 l -6.25976,14.423828 2.09765,2.392579 c 3.84492,4.387674 17.15794,16.110506 23.71485,20.882809 5.44798,3.96522 3.18048,3.7173 -5.96289,-0.65234 -7.09055,-3.388572 -14.30674,-7.554367 -19.68555,-11.365235 -2.087759,-1.479171 -3.961344,-2.523028 -4.164061,-2.320313 -0.202712,0.202711 -4.808327,9.062995 -10.234375,19.691408 -16.301802,31.93155 -27.38062,52.65292 -56,104.72656 -8.517285,15.49741 -15.627644,28.54218 -15.798828,28.98828 -0.171182,0.44611 -0.1645,0.81055 0.01367,0.81055 0.178173,0 4.246137,-2.14937 9.041015,-4.77539 27.283892,-14.94263 52.373523,-25.68385 71.007813,-30.40039 4.252662,-1.0764 7.798004,-2.02262 7.878904,-2.10352 0.0809,-0.0809 -0.10893,-3.84583 -0.42187,-8.36523 -0.61472,-8.87755 -0.14025,-16.66043 1.35547,-22.27539 1.37798,-5.17309 4.00847,-11.56718 5.98242,-14.53516 2.57843,-3.87689 7.21852,-8.39783 10.46289,-10.19531 2.45558,-1.36048 3.03314,-1.4668 7.91992,-1.4668 5.04071,0 5.40858,0.0733 8.41406,1.70313 6.49383,3.52142 12.81331,12.15333 15.65821,21.38672 2.36275,7.66868 2.60719,9.89474 2.45117,22.28906 l -0.14844,11.74804 7.26758,1.89649 c 8.72027,2.27584 21.33527,6.56584 29.74219,10.11328 7.90859,3.33718 29.31852,13.96132 40.72265,20.20703 4.89513,2.68092 9.02849,4.74495 9.18555,4.58789 0.2312,-0.2312 -9.01187,-17.97286 -15.80859,-30.34179 -1.50414,-2.7373 -3.62866,-4.66405 -13.90821,-12.6211 -5.89589,-4.56381 -15.0896,-10.74402 -21.92969,-14.74219 -8.10638,-4.73833 -7.18675,-4.89279 5.11524,-0.85156 4.00312,1.31503 9.85083,3.55565 12.99609,4.97852 3.14529,1.42288 5.82854,2.4781 5.96289,2.34375 0.13435,-0.13434 -5.63551,-11.37723 -12.82226,-24.98438 C 166.7075,100.30316 155.69655,77.839072 137.28906,35.263672 132.36537,23.875459 128.1848,14.556641 127.99805,14.556641 Z" />
    <path
       style="fill:#ffffff;paint-order:markers fill stroke"
       id="path924"
       d="m 231.52203,203.74268 c 4.45395,2.52345 8.90791,5.0469 13.36186,7.57035 0.23066,0.113 0.9144,0.46748 0.69198,0.339 -4.05341,-2.34146 -8.15645,-4.59728 -12.18645,-6.97882 -0.0748,-0.0442 0.16461,-0.0571 0.24957,-0.0753 0.0476,-0.0102 0.1217,-0.0519 0.14575,-0.01 0.0388,0.0682 -0.0119,0.1565 -0.0178,0.23475 -1.32867,6.21103 9.59756,9.76444 15.18863,8.403 0,0 -12.07004,-8.52563 -12.07004,-8.52563 v 0 c -0.45585,-0.005 -0.65989,0.0185 -1.12189,-0.10478 -0.21144,-0.0564 -0.80324,-0.34055 -0.61576,-0.22766 4.08585,2.46032 8.30479,4.70219 12.32035,7.27564 0.15543,0.0996 -0.26246,0.28066 -0.43733,0.33984 -0.0574,0.0194 -0.0367,-0.11546 -0.0551,-0.17319 0.06,-0.29477 0.54321,-1.52365 0.20654,-1.73558 -4.2648,-2.68462 -8.71134,-5.06918 -13.0812,-7.57919 -0.2242,-0.12878 -0.92248,-0.46624 -0.69907,-0.3361 3.98294,2.32016 7.98641,4.60486 11.97962,6.90729 0,0 -13.85971,-5.32409 -13.85971,-5.32409 z" />
    <path
       style="fill:#ffffff;paint-order:markers fill stroke"
       id="path926"
       d="m 239.91659,198.3181 c -1.4892,1.68771 -2.82882,3.49995 -4.21874,5.26878 -1.42078,1.72798 -2.58773,3.644 -3.77143,5.53817 -0.52638,0.73229 -0.88409,1.55575 -1.23876,2.37836 0,0 12.8068,7.14634 12.8068,7.14634 v 0 c 0.27312,-0.76426 0.57345,-1.51157 1.02781,-2.19153 1.16247,-1.84988 2.09081,-3.85314 3.52651,-5.51907 1.33353,-1.76178 2.72425,-3.55853 4.5829,-4.79786 0,0 -12.71509,-7.82319 -12.71509,-7.82319 z" />
    <path
       style="fill:#ffffff;paint-order:markers fill stroke"
       id="path928"
       d="m 226.65516,199.85778 c 0.16309,1.35243 0.0267,2.71545 0.26413,4.05902 0.0459,0.18505 0.0918,0.37011 0.13766,0.55517 0,0 13.36967,6.34238 13.36967,6.34238 v 0 c -0.0594,-0.17696 -0.11871,-0.35393 -0.17807,-0.53089 -0.0324,-0.089 -0.36921,-1.00158 -0.38211,-1.09319 -0.11667,-0.82844 0.0826,-1.71608 0.11149,-2.5442 0,0 -13.32277,-6.78829 -13.32277,-6.78829 z" />
  </g>
</svg>
